<svg xmlns="http://www.w3.org/2000/svg" xmlns:xlink="http://www.w3.org/1999/xlink" width="512" zoomAndPan="magnify" viewBox="0 0 384 383.999986" height="512" preserveAspectRatio="xMidYMid meet" version="1.2"><defs><clipPath id="f7faa0348e"><path d="M 121 12 L 380.046875 12 L 380.046875 381 L 121 381 Z M 121 12 "/></clipPath><clipPath id="df2a28d780"><path d="M 5.796875 6 L 264 6 L 264 375 L 5.796875 375 Z M 5.796875 6 "/></clipPath></defs><g id="aabcbe268f"><path style=" stroke:none;fill-rule:nonzero;fill:#fce200;fill-opacity:1;" d="M 273.074219 165.339844 C 272.503906 164.425781 271.746094 163.707031 270.804688 163.1875 C 269.859375 162.664062 268.851562 162.40625 267.773438 162.40625 L 199.160156 162.40625 L 199.160156 68.863281 C 199.15625 68.164062 199.039062 67.484375 198.804688 66.828125 C 198.574219 66.167969 198.242188 65.566406 197.804688 65.019531 C 197.371094 64.472656 196.859375 64.011719 196.269531 63.636719 C 195.679688 63.261719 195.046875 62.992188 194.367188 62.832031 C 193.6875 62.671875 193 62.625 192.304688 62.691406 C 191.609375 62.761719 190.945312 62.941406 190.3125 63.234375 C 189.675781 63.527344 189.109375 63.914062 188.605469 64.398438 C 188.101562 64.882812 187.6875 65.433594 187.371094 66.054688 L 112.519531 215.730469 C 112.402344 215.964844 112.296875 216.207031 112.210938 216.457031 C 112.121094 216.707031 112.050781 216.960938 111.992188 217.21875 C 111.9375 217.480469 111.898438 217.738281 111.875 218.003906 C 111.855469 218.265625 111.847656 218.53125 111.859375 218.796875 C 111.871094 219.058594 111.898438 219.324219 111.941406 219.585938 C 111.988281 219.84375 112.046875 220.101562 112.125 220.355469 C 112.203125 220.609375 112.296875 220.855469 112.40625 221.097656 C 112.511719 221.339844 112.636719 221.570312 112.773438 221.796875 C 112.914062 222.023438 113.066406 222.238281 113.230469 222.445312 C 113.398438 222.652344 113.578125 222.847656 113.765625 223.03125 C 113.957031 223.214844 114.160156 223.382812 114.371094 223.542969 C 114.585938 223.699219 114.804688 223.84375 115.039062 223.972656 C 115.269531 224.101562 115.507812 224.214844 115.75 224.316406 C 115.996094 224.414062 116.246094 224.5 116.503906 224.566406 C 116.757812 224.632812 117.019531 224.683594 117.28125 224.71875 C 117.542969 224.753906 117.808594 224.769531 118.074219 224.769531 L 186.683594 224.769531 L 186.683594 318.316406 C 186.6875 319.015625 186.804688 319.699219 187.035156 320.359375 C 187.269531 321.019531 187.601562 321.625 188.035156 322.175781 C 188.472656 322.722656 188.984375 323.183594 189.578125 323.5625 C 190.167969 323.9375 190.804688 324.207031 191.488281 324.367188 C 191.957031 324.488281 192.4375 324.550781 192.921875 324.554688 C 193.5 324.550781 194.0625 324.472656 194.617188 324.3125 C 195.171875 324.15625 195.691406 323.925781 196.183594 323.621094 C 196.671875 323.320312 197.113281 322.957031 197.5 322.53125 C 197.890625 322.105469 198.214844 321.636719 198.472656 321.125 L 273.324219 171.449219 C 273.816406 170.480469 274.039062 169.449219 273.992188 168.363281 C 273.949219 167.273438 273.644531 166.265625 273.074219 165.339844 Z M 199.160156 291.875 L 199.160156 218.535156 C 199.160156 218.125 199.121094 217.71875 199.039062 217.316406 C 198.960938 216.917969 198.84375 216.527344 198.683594 216.148438 C 198.527344 215.769531 198.335938 215.410156 198.109375 215.070312 C 197.882812 214.730469 197.621094 214.414062 197.332031 214.125 C 197.042969 213.835938 196.726562 213.578125 196.386719 213.351562 C 196.046875 213.121094 195.6875 212.929688 195.308594 212.773438 C 194.929688 212.617188 194.539062 212.5 194.140625 212.417969 C 193.738281 212.339844 193.332031 212.296875 192.921875 212.296875 L 128.175781 212.296875 L 186.683594 95.304688 L 186.683594 168.644531 C 186.683594 169.054688 186.726562 169.460938 186.804688 169.859375 C 186.882812 170.261719 187.003906 170.652344 187.160156 171.03125 C 187.316406 171.410156 187.507812 171.769531 187.734375 172.109375 C 187.964844 172.449219 188.222656 172.765625 188.511719 173.054688 C 188.800781 173.34375 189.117188 173.601562 189.457031 173.828125 C 189.796875 174.058594 190.15625 174.25 190.535156 174.40625 C 190.914062 174.5625 191.304688 174.679688 191.707031 174.761719 C 192.105469 174.839844 192.511719 174.878906 192.921875 174.878906 L 257.667969 174.878906 Z M 199.160156 291.875 "/><g clip-rule="nonzero" clip-path="url(#f7faa0348e)"><path style=" stroke:none;fill-rule:nonzero;fill:green;fill-opacity:1;" d="M 345.179688 84.953125 C 345.765625 84.214844 346.316406 83.449219 346.835938 82.660156 C 347.351562 81.871094 347.832031 81.0625 348.277344 80.230469 C 348.71875 79.398438 349.125 78.546875 349.488281 77.679688 C 349.855469 76.808594 350.179688 75.925781 350.46875 75.027344 C 350.753906 74.128906 350.996094 73.21875 351.199219 72.296875 C 351.402344 71.375 351.5625 70.449219 351.683594 69.511719 C 351.800781 68.578125 351.875 67.640625 351.910156 66.695312 C 351.941406 65.753906 351.933594 64.8125 351.878906 63.871094 C 351.828125 62.929688 351.730469 61.992188 351.59375 61.058594 C 351.457031 60.125 351.277344 59.203125 351.054688 58.285156 C 350.832031 57.367188 350.570312 56.464844 350.265625 55.570312 C 349.960938 54.679688 349.617188 53.800781 349.234375 52.941406 C 348.847656 52.082031 348.425781 51.238281 347.964844 50.414062 C 347.503906 49.59375 347.007812 48.792969 346.476562 48.015625 C 345.941406 47.238281 345.375 46.484375 344.773438 45.757812 C 344.171875 45.03125 343.535156 44.335938 342.871094 43.667969 L 325.21875 26.019531 C 324.925781 25.738281 324.609375 25.492188 324.265625 25.273438 C 323.925781 25.054688 323.566406 24.867188 323.191406 24.71875 C 322.8125 24.566406 322.425781 24.453125 322.027344 24.378906 C 321.628906 24.300781 321.226562 24.265625 320.824219 24.265625 C 320.417969 24.265625 320.015625 24.300781 319.617188 24.378906 C 319.21875 24.453125 318.832031 24.566406 318.453125 24.71875 C 318.078125 24.867188 317.71875 25.054688 317.378906 25.273438 C 317.035156 25.492188 316.71875 25.738281 316.425781 26.019531 L 311.996094 30.445312 L 294.34375 12.796875 L 285.550781 21.589844 L 303.203125 39.238281 L 294.34375 48.09375 L 276.691406 30.445312 L 267.898438 39.238281 L 285.550781 56.886719 L 281.121094 61.316406 C 280.832031 61.605469 280.578125 61.917969 280.351562 62.257812 C 280.125 62.597656 279.933594 62.957031 279.777344 63.335938 C 279.621094 63.710938 279.503906 64.101562 279.425781 64.5 C 279.347656 64.902344 279.308594 65.304688 279.308594 65.710938 C 279.308594 66.121094 279.347656 66.523438 279.425781 66.925781 C 279.503906 67.324219 279.621094 67.714844 279.777344 68.089844 C 279.933594 68.46875 280.125 68.828125 280.351562 69.164062 C 280.578125 69.503906 280.832031 69.820312 281.121094 70.109375 L 298.773438 87.757812 C 299.945312 88.941406 301.207031 90.023438 302.554688 91 C 303.90625 91.976562 305.324219 92.839844 306.8125 93.589844 C 308.304688 94.335938 309.84375 94.960938 311.433594 95.457031 C 313.023438 95.957031 314.644531 96.320312 316.292969 96.558594 C 317.941406 96.792969 319.601562 96.890625 321.265625 96.859375 C 322.933594 96.824219 324.585938 96.65625 326.226562 96.351562 C 327.863281 96.050781 329.46875 95.617188 331.035156 95.054688 C 332.605469 94.492188 334.117188 93.804688 335.574219 92.996094 C 340.769531 100.292969 345.371094 107.949219 349.375 115.964844 C 353.378906 123.976562 356.738281 132.25 359.453125 140.789062 C 362.167969 149.324219 364.207031 158.019531 365.566406 166.871094 C 366.929688 175.726562 367.597656 184.632812 367.574219 193.589844 C 367.570312 197.15625 367.457031 200.714844 367.234375 204.273438 C 367.015625 207.832031 366.683594 211.378906 366.246094 214.917969 C 365.808594 218.457031 365.261719 221.976562 364.609375 225.484375 C 363.953125 228.988281 363.195312 232.46875 362.328125 235.925781 C 361.460938 239.382812 360.488281 242.8125 359.410156 246.210938 C 358.335938 249.609375 357.15625 252.972656 355.871094 256.300781 C 354.589844 259.625 353.207031 262.910156 351.722656 266.152344 C 350.238281 269.394531 348.660156 272.585938 346.980469 275.730469 C 345.300781 278.875 343.527344 281.96875 341.660156 285.003906 C 339.789062 288.039062 337.832031 291.015625 335.78125 293.933594 C 333.730469 296.851562 331.59375 299.703125 329.367188 302.488281 C 327.144531 305.273438 324.835938 307.988281 322.445312 310.632812 C 320.050781 313.277344 317.582031 315.847656 315.035156 318.339844 C 312.484375 320.835938 309.863281 323.246094 307.167969 325.582031 C 304.472656 327.914062 301.707031 330.164062 298.875 332.328125 C 296.039062 334.492188 293.144531 336.566406 290.183594 338.554688 C 287.222656 340.539062 284.203125 342.433594 281.125 344.234375 C 278.050781 346.039062 274.921875 347.746094 271.738281 349.355469 C 268.558594 350.964844 265.332031 352.476562 262.058594 353.890625 C 258.785156 355.304688 255.46875 356.617188 252.117188 357.824219 C 248.761719 359.035156 245.375 360.144531 241.953125 361.144531 C 238.53125 362.148438 235.082031 363.046875 231.605469 363.839844 C 228.128906 364.632812 224.632812 365.316406 221.113281 365.894531 C 217.59375 366.472656 214.0625 366.941406 210.515625 367.304688 C 206.96875 367.667969 203.410156 367.917969 199.847656 368.0625 C 196.285156 368.207031 192.722656 368.242188 189.15625 368.171875 C 185.59375 368.097656 182.035156 367.914062 178.480469 367.621094 C 174.925781 367.332031 171.382812 366.933594 167.855469 366.421875 C 164.324219 365.914062 160.816406 365.300781 157.324219 364.578125 C 153.832031 363.855469 150.367188 363.027344 146.925781 362.089844 C 143.484375 361.15625 140.074219 360.117188 136.699219 358.972656 C 133.320312 357.828125 129.980469 356.585938 126.679688 355.234375 L 121.941406 366.773438 C 125.476562 368.21875 129.054688 369.554688 132.671875 370.777344 C 136.292969 372.003906 139.945312 373.117188 143.628906 374.121094 C 147.316406 375.121094 151.03125 376.011719 154.773438 376.785156 C 158.511719 377.5625 162.273438 378.222656 166.054688 378.765625 C 169.835938 379.3125 173.632812 379.738281 177.441406 380.050781 C 181.246094 380.363281 185.0625 380.5625 188.882812 380.640625 C 192.699219 380.71875 196.519531 380.683594 200.335938 380.527344 C 204.152344 380.371094 207.964844 380.101562 211.765625 379.714844 C 215.566406 379.328125 219.351562 378.824219 223.121094 378.203125 C 226.890625 377.585938 230.636719 376.851562 234.363281 376.003906 C 238.089844 375.15625 241.785156 374.191406 245.449219 373.117188 C 249.117188 372.042969 252.746094 370.859375 256.339844 369.5625 C 259.933594 368.265625 263.484375 366.859375 266.992188 365.347656 C 270.5 363.832031 273.957031 362.210938 277.367188 360.488281 C 280.773438 358.761719 284.128906 356.933594 287.425781 355.003906 C 290.722656 353.070312 293.957031 351.042969 297.128906 348.914062 C 300.300781 346.785156 303.40625 344.5625 306.441406 342.242188 C 309.476562 339.925781 312.441406 337.515625 315.328125 335.015625 C 318.21875 332.515625 321.027344 329.929688 323.757812 327.257812 C 326.488281 324.585938 329.132812 321.832031 331.695312 319 C 334.257812 316.167969 336.730469 313.257812 339.113281 310.273438 C 341.5 307.285156 343.789062 304.230469 345.988281 301.105469 C 348.183594 297.980469 350.28125 294.792969 352.285156 291.539062 C 354.285156 288.285156 356.1875 284.972656 357.984375 281.601562 C 359.785156 278.234375 361.480469 274.8125 363.070312 271.339844 C 364.65625 267.863281 366.140625 264.347656 367.515625 260.78125 C 368.886719 257.21875 370.152344 253.613281 371.304688 249.972656 C 372.460938 246.332031 373.5 242.65625 374.429688 238.953125 C 375.359375 235.246094 376.171875 231.515625 376.875 227.761719 C 377.574219 224.007812 378.160156 220.234375 378.628906 216.441406 C 379.097656 212.652344 379.449219 208.851562 379.6875 205.039062 C 379.925781 201.226562 380.042969 197.410156 380.046875 193.589844 C 380.074219 183.90625 379.347656 174.277344 377.863281 164.707031 C 376.378906 155.136719 374.15625 145.738281 371.199219 136.515625 C 368.238281 127.292969 364.578125 118.359375 360.214844 109.714844 C 355.851562 101.066406 350.839844 92.8125 345.179688 84.953125 Z M 334.078125 78.964844 C 333.640625 79.394531 333.183594 79.800781 332.707031 80.1875 C 332.230469 80.570312 331.738281 80.933594 331.226562 81.269531 C 330.714844 81.609375 330.1875 81.917969 329.648438 82.203125 C 329.105469 82.492188 328.550781 82.75 327.984375 82.980469 C 327.417969 83.214844 326.839844 83.417969 326.253906 83.59375 C 325.667969 83.769531 325.074219 83.917969 324.472656 84.035156 C 323.871094 84.152344 323.265625 84.242188 322.65625 84.300781 C 322.046875 84.363281 321.433594 84.390625 320.824219 84.390625 C 320.210938 84.390625 319.597656 84.363281 318.988281 84.300781 C 318.378906 84.242188 317.773438 84.152344 317.171875 84.035156 C 316.570312 83.917969 315.976562 83.769531 315.390625 83.59375 C 314.804688 83.417969 314.226562 83.214844 313.660156 82.980469 C 313.09375 82.75 312.539062 82.492188 312 82.203125 C 311.457031 81.917969 310.929688 81.609375 310.417969 81.269531 C 309.90625 80.933594 309.414062 80.570312 308.9375 80.1875 C 308.460938 79.800781 308.003906 79.394531 307.566406 78.964844 L 294.34375 65.679688 L 320.855469 39.238281 L 334.078125 52.460938 C 334.511719 52.894531 334.921875 53.351562 335.308594 53.824219 C 335.695312 54.300781 336.0625 54.792969 336.402344 55.304688 C 336.742188 55.8125 337.054688 56.339844 337.34375 56.882812 C 337.632812 57.421875 337.894531 57.976562 338.128906 58.542969 C 338.363281 59.109375 338.566406 59.6875 338.746094 60.273438 C 338.921875 60.863281 339.070312 61.457031 339.191406 62.058594 C 339.308594 62.660156 339.398438 63.265625 339.460938 63.875 C 339.519531 64.488281 339.550781 65.097656 339.550781 65.710938 C 339.550781 66.324219 339.519531 66.9375 339.460938 67.546875 C 339.398438 68.160156 339.308594 68.765625 339.191406 69.367188 C 339.070312 69.96875 338.921875 70.5625 338.746094 71.148438 C 338.566406 71.738281 338.363281 72.316406 338.128906 72.882812 C 337.894531 73.449219 337.632812 74.003906 337.34375 74.542969 C 337.054688 75.085938 336.742188 75.613281 336.402344 76.121094 C 336.0625 76.632812 335.695312 77.125 335.308594 77.601562 C 334.921875 78.074219 334.511719 78.53125 334.078125 78.964844 Z M 334.078125 78.964844 "/></g><g clip-rule="nonzero" clip-path="url(#df2a28d780)"><path style=" stroke:none;fill-rule:nonzero;fill:red;fill-opacity:1;" d="M 192.921875 6.5 C 189.859375 6.503906 186.800781 6.582031 183.742188 6.734375 C 180.6875 6.886719 177.632812 7.117188 174.589844 7.421875 C 171.542969 7.722656 168.503906 8.101562 165.476562 8.554688 C 162.449219 9.003906 159.433594 9.53125 156.433594 10.132812 C 153.429688 10.730469 150.445312 11.40625 147.476562 12.152344 C 144.507812 12.898438 141.558594 13.714844 138.628906 14.605469 C 135.699219 15.496094 132.792969 16.457031 129.914062 17.492188 C 127.03125 18.523438 124.175781 19.628906 121.347656 20.800781 C 118.519531 21.972656 115.722656 23.214844 112.957031 24.527344 C 110.191406 25.835938 107.457031 27.214844 104.757812 28.65625 C 102.058594 30.101562 99.394531 31.609375 96.769531 33.1875 C 94.144531 34.761719 91.5625 36.398438 89.015625 38.101562 C 86.472656 39.800781 83.96875 41.5625 81.511719 43.386719 C 79.050781 45.210938 76.640625 47.09375 74.273438 49.035156 C 71.90625 50.980469 69.589844 52.976562 67.320312 55.035156 C 65.054688 57.089844 62.835938 59.199219 60.671875 61.363281 C 58.507812 63.527344 56.398438 65.742188 54.339844 68.011719 C 52.285156 70.28125 50.285156 72.597656 48.34375 74.960938 C 46.402344 77.328125 44.515625 79.738281 42.691406 82.199219 C 40.867188 84.65625 39.105469 87.15625 37.40625 89.703125 C 35.703125 92.246094 34.066406 94.832031 32.488281 97.457031 C 30.914062 100.082031 29.40625 102.742188 27.960938 105.441406 C 26.515625 108.140625 25.140625 110.871094 23.828125 113.636719 C 22.519531 116.40625 21.277344 119.203125 20.101562 122.027344 C 18.929688 124.855469 17.828125 127.710938 16.792969 130.589844 C 15.757812 133.472656 14.796875 136.378906 13.90625 139.304688 C 13.015625 142.234375 12.195312 145.183594 11.449219 148.152344 C 10.703125 151.121094 10.03125 154.105469 9.429688 157.105469 C 8.832031 160.105469 8.304688 163.121094 7.851562 166.148438 C 7.402344 169.175781 7.023438 172.210938 6.71875 175.257812 C 6.414062 178.304688 6.1875 181.355469 6.035156 184.414062 C 5.878906 187.46875 5.800781 190.527344 5.796875 193.589844 C 5.769531 203.273438 6.496094 212.902344 7.980469 222.472656 C 9.464844 232.042969 11.6875 241.441406 14.648438 250.664062 C 17.605469 259.882812 21.269531 268.820312 25.632812 277.464844 C 29.996094 286.113281 35.003906 294.367188 40.664062 302.226562 C 40.078125 302.964844 39.527344 303.730469 39.007812 304.519531 C 38.492188 305.304688 38.011719 306.117188 37.570312 306.949219 C 37.125 307.78125 36.722656 308.632812 36.355469 309.5 C 35.988281 310.371094 35.664062 311.253906 35.378906 312.152344 C 35.09375 313.050781 34.847656 313.960938 34.644531 314.882812 C 34.441406 315.800781 34.28125 316.730469 34.164062 317.664062 C 34.042969 318.601562 33.96875 319.539062 33.9375 320.484375 C 33.902344 321.425781 33.914062 322.367188 33.964844 323.308594 C 34.019531 324.25 34.113281 325.1875 34.25 326.121094 C 34.390625 327.050781 34.570312 327.976562 34.789062 328.894531 C 35.011719 329.808594 35.277344 330.714844 35.578125 331.605469 C 35.882812 332.5 36.226562 333.375 36.613281 334.238281 C 36.996094 335.097656 37.417969 335.941406 37.878906 336.765625 C 38.339844 337.585938 38.835938 338.386719 39.371094 339.164062 C 39.902344 339.941406 40.472656 340.695312 41.074219 341.421875 C 41.675781 342.144531 42.308594 342.84375 42.972656 343.511719 L 60.625 361.160156 C 61.199219 361.746094 61.867188 362.195312 62.625 362.511719 C 63.382812 362.824219 64.171875 362.976562 64.992188 362.96875 C 65.820312 362.976562 66.621094 362.824219 67.386719 362.511719 C 68.15625 362.199219 68.832031 361.746094 69.417969 361.160156 L 73.847656 356.734375 L 91.5 374.382812 L 100.296875 365.589844 L 82.644531 347.941406 L 91.5 339.085938 L 109.152344 356.734375 L 117.949219 347.941406 L 100.296875 330.289062 L 104.722656 325.863281 C 105.011719 325.574219 105.269531 325.257812 105.496094 324.917969 C 105.71875 324.578125 105.910156 324.222656 106.066406 323.84375 C 106.222656 323.46875 106.339844 323.078125 106.417969 322.679688 C 106.5 322.277344 106.539062 321.875 106.539062 321.464844 C 106.539062 321.058594 106.5 320.65625 106.417969 320.253906 C 106.339844 319.855469 106.222656 319.464844 106.066406 319.089844 C 105.910156 318.710938 105.71875 318.351562 105.496094 318.011719 C 105.269531 317.671875 105.011719 317.359375 104.722656 317.070312 L 87.070312 299.421875 C 85.890625 298.25 84.625 297.179688 83.273438 296.210938 C 81.921875 295.242188 80.5 294.386719 79.011719 293.644531 C 77.519531 292.90625 75.980469 292.289062 74.394531 291.792969 C 72.804688 291.300781 71.1875 290.933594 69.539062 290.699219 C 67.894531 290.464844 66.238281 290.363281 64.574219 290.394531 C 62.910156 290.425781 61.261719 290.589844 59.625 290.886719 C 57.988281 291.183594 56.382812 291.605469 54.816406 292.160156 C 53.246094 292.710938 51.730469 293.386719 50.269531 294.183594 C 45.074219 286.886719 40.476562 279.230469 36.472656 271.214844 C 32.46875 263.203125 29.105469 254.929688 26.390625 246.390625 C 23.675781 237.855469 21.636719 229.160156 20.277344 220.304688 C 18.914062 211.453125 18.246094 202.546875 18.273438 193.589844 C 18.277344 190.734375 18.347656 187.878906 18.492188 185.023438 C 18.636719 182.171875 18.847656 179.324219 19.128906 176.480469 C 19.414062 173.636719 19.765625 170.804688 20.1875 167.976562 C 20.609375 165.152344 21.101562 162.339844 21.660156 159.535156 C 22.21875 156.734375 22.847656 153.949219 23.542969 151.179688 C 24.242188 148.40625 25.003906 145.65625 25.835938 142.921875 C 26.667969 140.1875 27.566406 137.476562 28.53125 134.789062 C 29.492188 132.097656 30.523438 129.433594 31.617188 126.796875 C 32.714844 124.15625 33.871094 121.546875 35.09375 118.964844 C 36.316406 116.382812 37.605469 113.832031 38.953125 111.3125 C 40.300781 108.792969 41.707031 106.308594 43.179688 103.859375 C 44.648438 101.410156 46.175781 98.996094 47.765625 96.621094 C 49.355469 94.246094 51 91.914062 52.703125 89.617188 C 54.40625 87.324219 56.164062 85.074219 57.976562 82.863281 C 59.789062 80.65625 61.652344 78.492188 63.574219 76.378906 C 65.492188 74.261719 67.460938 72.191406 69.484375 70.171875 C 71.503906 68.152344 73.570312 66.183594 75.6875 64.265625 C 77.804688 62.34375 79.96875 60.480469 82.175781 58.667969 C 84.386719 56.855469 86.636719 55.097656 88.933594 53.394531 C 91.226562 51.691406 93.5625 50.046875 95.9375 48.457031 C 98.3125 46.871094 100.726562 45.34375 103.175781 43.871094 C 105.625 42.402344 108.113281 40.996094 110.632812 39.648438 C 113.152344 38.300781 115.703125 37.015625 118.285156 35.789062 C 120.867188 34.566406 123.476562 33.410156 126.117188 32.316406 C 128.757812 31.21875 131.421875 30.191406 134.109375 29.226562 C 136.800781 28.261719 139.511719 27.363281 142.246094 26.535156 C 144.980469 25.703125 147.730469 24.9375 150.503906 24.242188 C 153.273438 23.546875 156.0625 22.917969 158.863281 22.359375 C 161.664062 21.796875 164.480469 21.308594 167.304688 20.886719 C 170.132812 20.464844 172.964844 20.113281 175.808594 19.828125 C 178.652344 19.546875 181.5 19.332031 184.355469 19.191406 C 187.210938 19.046875 190.066406 18.972656 192.921875 18.972656 C 204.285156 18.949219 215.539062 20.03125 226.6875 22.226562 C 237.832031 24.417969 248.660156 27.679688 259.164062 32.003906 L 263.90625 20.40625 C 252.640625 15.796875 241.039062 12.320312 229.09375 9.980469 C 217.148438 7.640625 205.09375 6.480469 192.921875 6.5 Z M 51.769531 308.214844 C 52.203125 307.785156 52.660156 307.378906 53.136719 306.992188 C 53.613281 306.605469 54.105469 306.246094 54.617188 305.910156 C 55.128906 305.570312 55.65625 305.261719 56.199219 304.972656 C 56.738281 304.6875 57.292969 304.429688 57.859375 304.195312 C 58.429688 303.964844 59.003906 303.761719 59.589844 303.585938 C 60.179688 303.410156 60.773438 303.261719 61.375 303.144531 C 61.972656 303.023438 62.578125 302.9375 63.1875 302.878906 C 63.796875 302.816406 64.410156 302.789062 65.023438 302.789062 C 65.636719 302.789062 66.246094 302.816406 66.855469 302.878906 C 67.464844 302.9375 68.070312 303.023438 68.671875 303.144531 C 69.273438 303.261719 69.867188 303.410156 70.453125 303.585938 C 71.039062 303.761719 71.617188 303.964844 72.183594 304.195312 C 72.75 304.429688 73.304688 304.6875 73.847656 304.972656 C 74.386719 305.261719 74.914062 305.570312 75.425781 305.910156 C 75.9375 306.246094 76.429688 306.605469 76.90625 306.992188 C 77.382812 307.378906 77.839844 307.785156 78.277344 308.214844 L 91.5 321.496094 L 64.992188 347.941406 L 51.769531 334.71875 C 51.335938 334.285156 50.925781 333.828125 50.535156 333.355469 C 50.148438 332.878906 49.785156 332.386719 49.445312 331.875 C 49.105469 331.363281 48.789062 330.839844 48.5 330.296875 C 48.210938 329.757812 47.949219 329.203125 47.71875 328.636719 C 47.484375 328.066406 47.277344 327.492188 47.097656 326.902344 C 46.921875 326.316406 46.773438 325.722656 46.652344 325.121094 C 46.535156 324.519531 46.445312 323.914062 46.386719 323.300781 C 46.324219 322.691406 46.296875 322.078125 46.296875 321.464844 C 46.296875 320.851562 46.324219 320.242188 46.386719 319.628906 C 46.445312 319.019531 46.535156 318.414062 46.652344 317.8125 C 46.773438 317.210938 46.921875 316.617188 47.097656 316.027344 C 47.277344 315.441406 47.484375 314.863281 47.71875 314.296875 C 47.949219 313.730469 48.210938 313.175781 48.5 312.636719 C 48.789062 312.09375 49.105469 311.566406 49.445312 311.058594 C 49.785156 310.546875 50.148438 310.054688 50.535156 309.578125 C 50.925781 309.105469 51.335938 308.648438 51.769531 308.214844 Z M 51.769531 308.214844 "/></g></g></svg>