<!-- Save this as images/lightbulb-on.svg -->
<svg xmlns="http://www.w3.org/2000/svg" width="100" height="140" viewBox="0 0 64 64">
  <defs>
    <radialGradient id="glow" cx="32" cy="32" r="30">
      <stop offset="0%" stop-color="#fff176"/>
      <stop offset="100%" stop-color="#fbc02d"/>
    </radialGradient>
  </defs>
  <path fill="url(#glow)" d="M32 2C19 2 8 13 8 26c0 8 4.6 15 11.3 19.3v5.7c0 1.1.9 2 2 2h3v6c0 1.1.9 2 2 2h11c1.1 0 2-.9 2-2v-6h3c1.1 0 2-.9 2-2v-5.7C51.4 41 56 34 56 26 56 13 45 2 32 2z"/>
</svg>