<svg xmlns="http://www.w3.org/2000/svg" xmlns:xlink="http://www.w3.org/1999/xlink" width="256" zoomAndPan="magnify" viewBox="0 0 192 191.999996" height="256" preserveAspectRatio="xMidYMid meet" version="1.2"><defs><clipPath id="fdbc57a6a7"><path d="M 60 6 L 188.914062 6 L 188.914062 190 L 60 190 Z M 60 6 "/></clipPath><clipPath id="edf6995a7c"><path d="M 2.914062 3.136719 L 132 3.136719 L 132 187 L 2.914062 187 Z M 2.914062 3.136719 "/></clipPath></defs><g id="1fe986a363"><path style=" stroke:none;fill-rule:nonzero;fill:yellow;fill-opacity:1;" d="M 135.75 82.613281 C 135.464844 82.160156 135.089844 81.800781 134.621094 81.542969 C 134.152344 81.285156 133.652344 81.15625 133.113281 81.15625 L 99.015625 81.15625 L 99.015625 34.65625 C 99.011719 34.308594 98.953125 33.96875 98.839844 33.644531 C 98.722656 33.316406 98.558594 33.015625 98.34375 32.746094 C 98.125 32.472656 97.871094 32.242188 97.578125 32.058594 C 97.285156 31.871094 96.972656 31.738281 96.632812 31.65625 C 96.296875 31.578125 95.953125 31.554688 95.609375 31.589844 C 95.261719 31.621094 94.933594 31.710938 94.617188 31.859375 C 94.300781 32.003906 94.019531 32.195312 93.769531 32.4375 C 93.519531 32.675781 93.3125 32.949219 93.15625 33.257812 L 55.957031 107.660156 C 55.835938 107.898438 55.75 108.144531 55.695312 108.402344 C 55.636719 108.660156 55.617188 108.921875 55.628906 109.1875 C 55.636719 109.449219 55.683594 109.707031 55.757812 109.960938 C 55.835938 110.214844 55.945312 110.453125 56.082031 110.679688 C 56.21875 110.902344 56.386719 111.109375 56.574219 111.292969 C 56.765625 111.472656 56.976562 111.628906 57.207031 111.761719 C 57.4375 111.890625 57.679688 111.988281 57.933594 112.054688 C 58.191406 112.121094 58.449219 112.15625 58.714844 112.15625 L 92.816406 112.15625 L 92.816406 158.65625 C 92.816406 159.007812 92.875 159.34375 92.988281 159.671875 C 93.105469 160.003906 93.269531 160.304688 93.488281 160.574219 C 93.703125 160.847656 93.957031 161.078125 94.253906 161.265625 C 94.546875 161.453125 94.863281 161.585938 95.203125 161.664062 C 95.4375 161.726562 95.671875 161.757812 95.914062 161.757812 C 96.5 161.757812 97.039062 161.601562 97.535156 161.296875 C 98.03125 160.988281 98.410156 160.574219 98.675781 160.054688 L 135.875 85.652344 C 136.117188 85.167969 136.230469 84.65625 136.207031 84.117188 C 136.183594 83.574219 136.03125 83.074219 135.75 82.613281 Z M 99.015625 145.515625 L 99.015625 109.058594 C 99.015625 108.644531 98.9375 108.25 98.777344 107.871094 C 98.621094 107.492188 98.398438 107.15625 98.105469 106.863281 C 97.816406 106.574219 97.480469 106.351562 97.101562 106.191406 C 96.722656 106.035156 96.324219 105.957031 95.914062 105.957031 L 63.738281 105.957031 L 92.816406 47.800781 L 92.816406 84.257812 C 92.816406 84.667969 92.894531 85.0625 93.050781 85.441406 C 93.207031 85.824219 93.433594 86.15625 93.722656 86.449219 C 94.015625 86.738281 94.347656 86.964844 94.730469 87.121094 C 95.109375 87.277344 95.503906 87.355469 95.914062 87.355469 L 128.09375 87.355469 Z M 99.015625 145.515625 "/><g clip-rule="nonzero" clip-path="url(#fdbc57a6a7)"><path style=" stroke:none;fill-rule:nonzero;fill:green;fill-opacity:1;" d="M 171.585938 42.652344 C 172.171875 41.917969 172.683594 41.136719 173.125 40.304688 C 173.566406 39.476562 173.929688 38.613281 174.214844 37.71875 C 174.5 36.824219 174.699219 35.910156 174.816406 34.976562 C 174.933594 34.046875 174.96875 33.113281 174.914062 32.171875 C 174.863281 31.234375 174.726562 30.308594 174.503906 29.398438 C 174.285156 28.484375 173.984375 27.597656 173.601562 26.742188 C 173.21875 25.882812 172.761719 25.066406 172.230469 24.292969 C 171.699219 23.515625 171.101562 22.796875 170.4375 22.128906 L 161.667969 13.355469 C 161.371094 13.078125 161.035156 12.863281 160.65625 12.710938 C 160.28125 12.558594 159.886719 12.484375 159.480469 12.484375 C 159.074219 12.484375 158.683594 12.558594 158.304688 12.710938 C 157.925781 12.863281 157.589844 13.078125 157.296875 13.355469 L 155.09375 15.558594 L 146.320312 6.785156 L 141.949219 11.15625 L 150.722656 19.929688 L 146.320312 24.332031 L 137.546875 15.558594 L 133.175781 19.929688 L 141.949219 28.703125 L 139.75 30.902344 C 139.460938 31.195312 139.238281 31.527344 139.082031 31.90625 C 138.925781 32.285156 138.847656 32.679688 138.847656 33.089844 C 138.847656 33.5 138.925781 33.894531 139.082031 34.269531 C 139.238281 34.648438 139.460938 34.984375 139.75 35.273438 L 148.523438 44.046875 C 149.105469 44.636719 149.730469 45.171875 150.402344 45.660156 C 151.074219 46.144531 151.777344 46.574219 152.519531 46.945312 C 153.257812 47.320312 154.023438 47.628906 154.8125 47.875 C 155.605469 48.121094 156.410156 48.304688 157.230469 48.421875 C 158.050781 48.539062 158.875 48.589844 159.703125 48.570312 C 160.53125 48.554688 161.351562 48.46875 162.164062 48.320312 C 162.980469 48.167969 163.777344 47.953125 164.554688 47.675781 C 165.335938 47.394531 166.089844 47.054688 166.8125 46.652344 C 169.394531 50.28125 171.679688 54.085938 173.671875 58.070312 C 175.660156 62.050781 177.332031 66.164062 178.679688 70.410156 C 180.027344 74.652344 181.042969 78.972656 181.71875 83.375 C 182.394531 87.777344 182.726562 92.203125 182.714844 96.65625 C 182.714844 98.429688 182.65625 100.199219 182.546875 101.96875 C 182.4375 103.738281 182.273438 105.5 182.054688 107.257812 C 181.839844 109.019531 181.566406 110.769531 181.242188 112.511719 C 180.917969 114.253906 180.539062 115.984375 180.109375 117.703125 C 179.675781 119.421875 179.195312 121.125 178.660156 122.816406 C 178.125 124.503906 177.539062 126.175781 176.898438 127.828125 C 176.261719 129.484375 175.574219 131.117188 174.839844 132.726562 C 174.101562 134.339844 173.316406 135.925781 172.480469 137.488281 C 171.644531 139.050781 170.765625 140.589844 169.835938 142.097656 C 168.90625 143.609375 167.933594 145.085938 166.914062 146.539062 C 165.894531 147.988281 164.832031 149.40625 163.726562 150.789062 C 162.621094 152.175781 161.476562 153.523438 160.285156 154.839844 C 159.097656 156.152344 157.871094 157.429688 156.605469 158.671875 C 155.335938 159.910156 154.035156 161.109375 152.695312 162.269531 C 151.355469 163.429688 149.980469 164.546875 148.570312 165.621094 C 147.164062 166.699219 145.722656 167.730469 144.253906 168.71875 C 142.78125 169.703125 141.28125 170.648438 139.75 171.542969 C 138.222656 172.4375 136.667969 173.285156 135.085938 174.085938 C 133.503906 174.886719 131.902344 175.640625 130.273438 176.339844 C 128.648438 177.042969 127 177.695312 125.335938 178.296875 C 123.667969 178.898438 121.984375 179.449219 120.28125 179.949219 C 118.582031 180.445312 116.867188 180.894531 115.140625 181.285156 C 113.414062 181.679688 111.675781 182.019531 109.925781 182.308594 C 108.175781 182.597656 106.421875 182.828125 104.65625 183.007812 C 102.894531 183.191406 101.128906 183.316406 99.359375 183.386719 C 97.585938 183.460938 95.816406 183.476562 94.042969 183.441406 C 92.273438 183.402344 90.503906 183.3125 88.738281 183.167969 C 86.972656 183.023438 85.210938 182.824219 83.457031 182.570312 C 81.703125 182.320312 79.957031 182.011719 78.222656 181.652344 C 76.488281 181.292969 74.765625 180.882812 73.054688 180.417969 C 71.34375 179.953125 69.648438 179.4375 67.972656 178.867188 C 66.292969 178.300781 64.632812 177.679688 62.992188 177.011719 L 60.636719 182.746094 C 62.394531 183.464844 64.171875 184.128906 65.972656 184.738281 C 67.769531 185.347656 69.585938 185.898438 71.417969 186.398438 C 73.25 186.894531 75.09375 187.339844 76.953125 187.722656 C 78.8125 188.109375 80.683594 188.4375 82.5625 188.707031 C 84.441406 188.976562 86.328125 189.191406 88.21875 189.347656 C 90.113281 189.503906 92.007812 189.597656 93.90625 189.640625 C 95.804688 189.679688 97.703125 189.660156 99.601562 189.582031 C 101.496094 189.507812 103.390625 189.371094 105.28125 189.179688 C 107.167969 188.984375 109.050781 188.734375 110.921875 188.429688 C 112.796875 188.121094 114.660156 187.753906 116.511719 187.332031 C 118.363281 186.914062 120.199219 186.433594 122.019531 185.898438 C 123.84375 185.367188 125.648438 184.777344 127.433594 184.132812 C 129.21875 183.488281 130.984375 182.789062 132.726562 182.035156 C 134.46875 181.285156 136.1875 180.476562 137.882812 179.621094 C 139.578125 178.761719 141.242188 177.855469 142.882812 176.894531 C 144.519531 175.933594 146.128906 174.925781 147.703125 173.867188 C 149.28125 172.808594 150.824219 171.703125 152.332031 170.550781 C 153.84375 169.398438 155.3125 168.203125 156.75 166.957031 C 158.1875 165.714844 159.582031 164.429688 160.9375 163.101562 C 162.296875 161.773438 163.613281 160.40625 164.886719 158.996094 C 166.15625 157.589844 167.386719 156.144531 168.570312 154.660156 C 169.757812 153.175781 170.894531 151.65625 171.988281 150.101562 C 173.078125 148.550781 174.121094 146.964844 175.117188 145.347656 C 176.113281 143.730469 177.054688 142.082031 177.949219 140.40625 C 178.84375 138.734375 179.6875 137.03125 180.476562 135.304688 C 181.265625 133.578125 182.003906 131.828125 182.6875 130.058594 C 183.367188 128.285156 183.996094 126.496094 184.570312 124.683594 C 185.144531 122.875 185.660156 121.046875 186.121094 119.207031 C 186.585938 117.363281 186.988281 115.511719 187.335938 113.644531 C 187.6875 111.777344 187.976562 109.902344 188.210938 108.015625 C 188.441406 106.132812 188.617188 104.242188 188.734375 102.347656 C 188.855469 100.453125 188.914062 98.554688 188.914062 96.65625 C 188.929688 91.84375 188.566406 87.054688 187.828125 82.296875 C 187.09375 77.539062 185.988281 72.871094 184.515625 68.285156 C 183.046875 63.703125 181.226562 59.261719 179.058594 54.960938 C 176.890625 50.664062 174.398438 46.558594 171.585938 42.652344 Z M 166.066406 39.675781 C 165.632812 40.105469 165.160156 40.488281 164.652344 40.824219 C 164.140625 41.160156 163.605469 41.441406 163.039062 41.671875 C 162.476562 41.90625 161.894531 42.078125 161.292969 42.199219 C 160.695312 42.316406 160.089844 42.375 159.480469 42.375 C 158.871094 42.375 158.265625 42.316406 157.667969 42.199219 C 157.066406 42.078125 156.484375 41.90625 155.921875 41.671875 C 155.355469 41.441406 154.820312 41.160156 154.308594 40.824219 C 153.800781 40.488281 153.328125 40.105469 152.894531 39.675781 L 146.320312 33.074219 L 159.496094 19.929688 L 166.066406 26.5 C 166.5 26.933594 166.882812 27.40625 167.222656 27.914062 C 167.5625 28.421875 167.847656 28.960938 168.082031 29.527344 C 168.316406 30.089844 168.492188 30.671875 168.609375 31.273438 C 168.730469 31.871094 168.789062 32.476562 168.789062 33.089844 C 168.789062 33.699219 168.730469 34.304688 168.609375 34.90625 C 168.492188 35.503906 168.316406 36.085938 168.082031 36.652344 C 167.847656 37.21875 167.5625 37.753906 167.222656 38.265625 C 166.882812 38.773438 166.5 39.242188 166.066406 39.675781 Z M 166.066406 39.675781 "/></g><g clip-rule="nonzero" clip-path="url(#edf6995a7c)"><path style=" stroke:none;fill-rule:nonzero;fill:red;fill-opacity:1;" d="M 95.914062 3.652344 C 94.394531 3.65625 92.871094 3.695312 91.351562 3.769531 C 89.832031 3.847656 88.316406 3.960938 86.804688 4.113281 C 85.289062 4.261719 83.78125 4.449219 82.273438 4.675781 C 80.769531 4.898438 79.273438 5.160156 77.78125 5.460938 C 76.289062 5.757812 74.804688 6.09375 73.328125 6.464844 C 71.851562 6.835938 70.386719 7.242188 68.929688 7.683594 C 67.476562 8.128906 66.03125 8.605469 64.601562 9.117188 C 63.167969 9.632812 61.75 10.179688 60.34375 10.765625 C 58.9375 11.347656 57.546875 11.964844 56.171875 12.617188 C 54.796875 13.265625 53.4375 13.953125 52.097656 14.667969 C 50.757812 15.386719 49.433594 16.136719 48.128906 16.921875 C 46.824219 17.703125 45.539062 18.515625 44.273438 19.363281 C 43.007812 20.207031 41.765625 21.085938 40.542969 21.992188 C 39.320312 22.898438 38.125 23.835938 36.949219 24.800781 C 35.769531 25.765625 34.621094 26.757812 33.492188 27.78125 C 32.363281 28.800781 31.261719 29.851562 30.1875 30.925781 C 29.113281 32.003906 28.0625 33.105469 27.042969 34.230469 C 26.019531 35.359375 25.027344 36.511719 24.058594 37.6875 C 23.09375 38.863281 22.160156 40.0625 21.253906 41.285156 C 20.34375 42.507812 19.46875 43.75 18.625 45.015625 C 17.777344 46.277344 16.964844 47.5625 16.179688 48.867188 C 15.398438 50.171875 14.648438 51.496094 13.929688 52.839844 C 13.210938 54.179688 12.527344 55.539062 11.875 56.914062 C 11.226562 58.289062 10.609375 59.679688 10.023438 61.082031 C 9.441406 62.488281 8.894531 63.90625 8.378906 65.339844 C 7.867188 66.773438 7.386719 68.214844 6.945312 69.671875 C 6.503906 71.128906 6.09375 72.59375 5.726562 74.070312 C 5.355469 75.542969 5.019531 77.027344 4.722656 78.519531 C 4.421875 80.011719 4.160156 81.511719 3.9375 83.015625 C 3.710938 84.519531 3.523438 86.03125 3.375 87.542969 C 3.222656 89.058594 3.109375 90.574219 3.03125 92.09375 C 2.957031 93.613281 2.917969 95.136719 2.914062 96.65625 C 2.902344 101.472656 3.261719 106.257812 4 111.015625 C 4.738281 115.773438 5.84375 120.441406 7.3125 125.027344 C 8.785156 129.613281 10.605469 134.054688 12.773438 138.351562 C 14.941406 142.648438 17.429688 146.753906 20.242188 150.660156 C 19.660156 151.394531 19.148438 152.179688 18.707031 153.007812 C 18.265625 153.835938 17.902344 154.699219 17.617188 155.59375 C 17.332031 156.488281 17.128906 157.402344 17.011719 158.335938 C 16.894531 159.265625 16.863281 160.203125 16.914062 161.140625 C 16.964844 162.078125 17.101562 163.003906 17.324219 163.914062 C 17.546875 164.828125 17.847656 165.714844 18.230469 166.574219 C 18.613281 167.429688 19.070312 168.246094 19.601562 169.019531 C 20.132812 169.796875 20.730469 170.515625 21.390625 171.183594 L 30.164062 179.957031 C 30.761719 180.5625 31.484375 180.863281 32.335938 180.855469 C 33.195312 180.863281 33.925781 180.5625 34.535156 179.957031 L 36.734375 177.753906 L 45.507812 186.527344 L 49.878906 182.15625 L 41.105469 173.382812 L 45.507812 168.980469 L 54.28125 177.753906 L 58.652344 173.382812 L 49.878906 164.609375 L 52.082031 162.410156 C 52.371094 162.117188 52.59375 161.785156 52.75 161.40625 C 52.90625 161.027344 52.984375 160.632812 52.984375 160.222656 C 52.984375 159.8125 52.90625 159.421875 52.75 159.042969 C 52.59375 158.664062 52.371094 158.328125 52.082031 158.039062 L 43.308594 149.265625 C 42.722656 148.683594 42.09375 148.148438 41.417969 147.667969 C 40.746094 147.1875 40.042969 146.761719 39.300781 146.394531 C 38.5625 146.027344 37.796875 145.71875 37.007812 145.472656 C 36.21875 145.226562 35.414062 145.046875 34.59375 144.929688 C 33.777344 144.8125 32.953125 144.761719 32.128906 144.777344 C 31.300781 144.792969 30.480469 144.875 29.667969 145.023438 C 28.851562 145.167969 28.054688 145.378906 27.277344 145.65625 C 26.496094 145.929688 25.742188 146.265625 25.019531 146.660156 C 22.4375 143.035156 20.148438 139.226562 18.160156 135.246094 C 16.167969 131.261719 14.5 127.148438 13.152344 122.902344 C 11.800781 118.660156 10.789062 114.339844 10.109375 109.9375 C 9.433594 105.535156 9.101562 101.109375 9.113281 96.65625 C 9.117188 95.234375 9.152344 93.816406 9.222656 92.398438 C 9.296875 90.980469 9.402344 89.566406 9.542969 88.152344 C 9.683594 86.738281 9.855469 85.328125 10.066406 83.925781 C 10.277344 82.519531 10.519531 81.121094 10.796875 79.730469 C 11.078125 78.335938 11.390625 76.953125 11.734375 75.574219 C 12.082031 74.195312 12.460938 72.828125 12.875 71.46875 C 13.289062 70.109375 13.734375 68.761719 14.210938 67.425781 C 14.691406 66.089844 15.203125 64.765625 15.746094 63.453125 C 16.292969 62.140625 16.867188 60.84375 17.476562 59.5625 C 18.082031 58.277344 18.722656 57.007812 19.394531 55.757812 C 20.0625 54.503906 20.761719 53.269531 21.492188 52.050781 C 22.222656 50.835938 22.984375 49.636719 23.773438 48.453125 C 24.5625 47.273438 25.378906 46.113281 26.226562 44.972656 C 27.074219 43.832031 27.945312 42.714844 28.847656 41.617188 C 29.75 40.519531 30.675781 39.441406 31.628906 38.390625 C 32.582031 37.339844 33.5625 36.308594 34.566406 35.304688 C 35.570312 34.300781 36.597656 33.324219 37.652344 32.367188 C 38.703125 31.414062 39.777344 30.488281 40.875 29.585938 C 41.972656 28.6875 43.09375 27.8125 44.234375 26.964844 C 45.375 26.121094 46.535156 25.300781 47.714844 24.511719 C 48.894531 23.722656 50.09375 22.964844 51.3125 22.234375 C 52.53125 21.503906 53.765625 20.800781 55.015625 20.132812 C 56.269531 19.460938 57.535156 18.824219 58.820312 18.214844 C 60.105469 17.605469 61.402344 17.03125 62.714844 16.488281 C 64.023438 15.941406 65.347656 15.429688 66.6875 14.953125 C 68.023438 14.472656 69.371094 14.027344 70.730469 13.613281 C 72.085938 13.199219 73.457031 12.820312 74.832031 12.472656 C 76.210938 12.128906 77.59375 11.816406 78.988281 11.539062 C 80.378906 11.257812 81.777344 11.015625 83.183594 10.804688 C 84.589844 10.597656 85.996094 10.421875 87.410156 10.28125 C 88.824219 10.140625 90.238281 10.035156 91.65625 9.964844 C 93.074219 9.890625 94.496094 9.855469 95.914062 9.855469 C 101.5625 9.84375 107.15625 10.382812 112.695312 11.472656 C 118.234375 12.5625 123.617188 14.183594 128.835938 16.332031 L 131.191406 10.566406 C 125.59375 8.277344 119.828125 6.546875 113.890625 5.386719 C 107.957031 4.222656 101.964844 3.644531 95.914062 3.652344 Z M 25.761719 153.636719 C 26.195312 153.207031 26.667969 152.824219 27.179688 152.488281 C 27.6875 152.152344 28.226562 151.871094 28.789062 151.640625 C 29.355469 151.40625 29.9375 151.234375 30.535156 151.117188 C 31.132812 150.996094 31.738281 150.9375 32.347656 150.9375 C 32.960938 150.9375 33.566406 150.996094 34.164062 151.117188 C 34.761719 151.234375 35.34375 151.40625 35.910156 151.640625 C 36.472656 151.871094 37.011719 152.152344 37.519531 152.488281 C 38.03125 152.824219 38.503906 153.207031 38.9375 153.636719 L 45.507812 160.238281 L 32.335938 173.382812 L 25.761719 166.8125 C 25.332031 166.378906 24.945312 165.90625 24.605469 165.398438 C 24.269531 164.890625 23.980469 164.351562 23.75 163.789062 C 23.515625 163.222656 23.339844 162.640625 23.21875 162.039062 C 23.101562 161.441406 23.042969 160.835938 23.042969 160.222656 C 23.042969 159.613281 23.101562 159.007812 23.21875 158.40625 C 23.339844 157.808594 23.515625 157.226562 23.75 156.660156 C 23.980469 156.09375 24.269531 155.558594 24.605469 155.050781 C 24.945312 154.539062 25.332031 154.070312 25.761719 153.636719 Z M 25.761719 153.636719 "/></g></g></svg>